<svg width="16" height="16" viewBox="0 0 16 16" fill="none" xmlns="http://www.w3.org/2000/svg">
<path d="M15.8251 7.99999C15.8251 12.325 12.325 15.825 8.00005 15.825C3.67505 15.825 0.175049 12.325 0.175049 7.99999C0.175049 3.67499 3.67505 0.174988 8.00005 0.174988C12.325 0.174988 15.8251 3.67499 15.8251 7.99999ZM8.00005 0.649988C3.92505 0.649988 0.650049 3.92499 0.650049 7.99999C0.650049 12.075 3.95005 15.35 8.00005 15.35C12.075 15.35 15.3501 12.05 15.3501 7.99999C15.3501 3.92499 12.075 0.649988 8.00005 0.649988Z" fill="url(#paint0_linear_9_3)"/>
<path d="M7.9999 0.650024C3.9249 0.650024 0.649902 3.92502 0.649902 8.00002C0.649902 12.075 3.9499 15.35 7.9999 15.35C12.0749 15.35 15.3499 12.05 15.3499 8.00002C15.3499 3.92502 12.0749 0.650024 7.9999 0.650024ZM7.9999 14.875C4.1999 14.875 1.1249 11.8 1.1249 8.00002C1.1249 4.20002 4.1999 1.12502 7.9999 1.12502C11.7999 1.12502 14.8749 4.20002 14.8749 8.00002C14.8749 11.8 11.7999 14.875 7.9999 14.875Z" fill="url(#paint1_linear_9_3)"/>
<path opacity="0.4" d="M8 15.825C12.325 15.825 15.825 12.325 15.825 8C15.825 3.675 12.325 0.175 8 0.175C3.675 0.175 0.175 3.675 0.175 8C0.175 12.325 3.675 15.825 8 15.825ZM8 0C12.4 0 16 3.6 16 8C16 12.4 12.4 16 8 16C3.6 16 0 12.4 0 8C0 3.6 3.6 0 8 0Z" fill="url(#paint2_linear_9_3)"/>
<path d="M0.550049 8.02499C0.550049 3.92499 3.87505 0.549988 8.00005 0.549988C12.1251 0.549988 15.4501 3.89999 15.4501 8.02499C15.4501 12.125 12.1251 15.45 8.00005 15.45C3.87505 15.45 0.550049 12.125 0.550049 8.02499ZM2.87505 2.87499C1.55005 4.19999 0.725049 6.02499 0.725049 8.02499C0.725049 10.025 1.55005 11.85 2.85005 13.15C4.17505 14.45 6.00005 15.275 8.00005 15.275C10 15.275 11.8251 14.475 13.1251 13.15C14.4501 11.85 15.2501 10.025 15.2501 8.02499C15.2501 6.02499 14.4251 4.19999 13.1251 2.87499C11.8251 1.54999 10 0.724988 8.00005 0.724988C6.00005 0.724988 4.17505 1.54999 2.87505 2.87499Z" fill="white"/>
<path opacity="0.4" d="M8.0001 14.9C6.1501 14.9 4.4251 14.175 3.1251 12.875C1.8251 11.575 1.1001 9.84998 1.1001 7.99998C1.1001 6.14998 1.8251 4.42498 3.1251 3.12498C4.4251 1.82498 6.1501 1.09998 8.0001 1.09998C9.8501 1.09998 11.5751 1.82498 12.8751 3.12498C14.1751 4.42498 14.9001 6.14998 14.9001 7.99998C14.9001 9.84998 14.1751 11.575 12.8751 12.875C11.5751 14.175 9.8501 14.9 8.0001 14.9ZM8.0001 14.7C9.7751 14.7 11.4751 14 12.7251 12.75C14.0001 11.475 14.6751 9.79998 14.6751 8.02498C14.6751 6.24998 13.9751 4.54998 12.7251 3.29998C11.4501 2.02498 9.7751 1.34998 8.0001 1.34998C6.2251 1.34998 4.5251 2.04998 3.2751 3.29998C2.0001 4.52498 1.3001 6.22498 1.3001 7.99998C1.3001 9.77498 2.0001 11.475 3.2501 12.725C4.5251 14 6.2251 14.7 8.0001 14.7Z" fill="url(#paint3_linear_9_3)"/>
<path d="M14.075 11.25C13.95 11.15 9.12495 7.32502 9.12495 7.32502L7.99995 0.900024C7.92495 0.925024 7.82495 1.00002 7.77495 1.10002L6.97495 7.35002L1.99995 11.175C1.99995 11.175 1.89995 11.3 1.84995 11.375C1.82495 11.425 1.82495 11.5 1.82495 11.575L7.97495 9.05002L14.125 11.575C14.175 11.45 14.125 11.325 14.075 11.25Z" fill="white"/>
<path d="M8.05 8.20003L8 9.35003L13.65 11.625C13.85 11.725 14 11.675 14.15 11.575L8.125 8.17503C8.1 8.15003 8.05 8.17503 8.05 8.20003Z" fill="#565F64"/>
<path d="M8.05005 8.20003C8.05005 8.20003 8.37505 8.77503 8.75005 9.17503C9.27505 9.75003 9.97505 10.15 9.97505 10.15L13.65 11.625C13.85 11.725 14 11.675 14.15 11.575L8.12505 8.17503C8.10005 8.15003 8.05005 8.17503 8.05005 8.20003Z" fill="url(#paint4_linear_9_3)"/>
<path d="M14.1251 11.35C14.1251 11.325 14.1001 11.3 14.0751 11.25L8.9251 7.47498L8.2251 7.92498C8.2251 7.92498 8.2751 7.94998 8.3001 7.92498C8.3751 7.89998 8.5251 7.87498 8.6751 7.92498C8.8001 7.97498 14.1251 11.375 14.1251 11.375C14.1251 11.375 14.1251 11.375 14.1251 11.35Z" fill="#A4AAAE" fill-opacity="0.6"/>
<path d="M13.95 11.125L9.15005 7.32501L8.92505 7.47501L14.075 11.275C14.05 11.225 14 11.175 13.95 11.125Z" fill="#333E46"/>
<path d="M8.1251 7.82499C8.1001 7.84999 8.1001 7.84999 8.1001 7.84999C8.1001 7.84999 8.1001 7.89999 8.1501 7.87499C8.1751 7.84999 8.9001 7.47499 9.1501 7.32499L8.2751 1.32499C8.2501 1.09999 8.1501 0.999988 7.9751 0.924988L8.0751 7.87499L8.1251 7.82499Z" fill="#565F64"/>
<path d="M7.6999 1.32499V1.64999L7.1499 7.17499C7.1499 7.24999 7.1749 7.32499 7.2499 7.37499L7.5749 7.62499L7.7999 1.52499L7.8249 1.04999C7.7499 1.09999 7.7249 1.19999 7.6999 1.32499Z" fill="#A4AAAE" fill-opacity="0.6"/>
<path d="M7.4001 7.72498L7.1001 7.47498L2.0251 11.15C2.0251 11.15 1.8751 11.25 1.8501 11.35L2.0251 11.25L7.3501 7.89998C7.4501 7.84998 7.4751 7.79998 7.4001 7.72498Z" fill="#A4AAAE" fill-opacity="0.6"/>
<path d="M7.92495 8.20003C7.92495 8.17503 7.89995 8.15003 7.87495 8.17503L1.82495 11.6C1.97495 11.7 2.12495 11.725 2.32495 11.65L7.97495 9.37503L7.92495 8.20003Z" fill="#565F64"/>
<path d="M8.1001 7.84998L8.1251 7.82498C8.1001 7.84998 8.1001 7.84998 8.1001 7.84998C8.1001 7.84998 8.1001 7.87498 8.1251 7.87498H8.1501C8.1751 7.84998 8.9001 7.47498 9.1501 7.32498L9.0501 6.59998L8.2751 1.32498C8.2751 1.22498 8.2501 1.14998 8.2001 1.09998C8.2001 1.09998 8.5751 6.14998 8.5751 6.69998C8.5751 7.42498 8.1001 7.84998 8.1001 7.84998Z" fill="url(#paint5_linear_9_3)"/>
<path d="M7.92495 8.20003C7.92495 8.17503 7.89995 8.15003 7.87495 8.17503L1.82495 11.6C1.97495 11.7 2.12495 11.725 2.32495 11.65L7.97495 9.37503L7.92495 8.20003Z" fill="url(#paint6_linear_9_3)" fill-opacity="0.8"/>
<path opacity="0.8" d="M2.32505 11.625L7.97505 9.35L7.92505 8.25C7.82505 8.55 7.65005 8.875 7.17505 9.125C6.82505 9.325 3.47505 10.975 2.27505 11.55C2.20005 11.6 2.10005 11.625 2.05005 11.65C2.15005 11.7 2.22505 11.675 2.32505 11.625Z" fill="url(#paint7_linear_9_3)"/>
<path d="M8.1251 7.82499C8.1001 7.84999 8.1001 7.84999 8.1001 7.84999C8.1001 7.84999 8.1001 7.89999 8.1501 7.87499C8.1751 7.84999 8.9001 7.47499 9.1501 7.32499L8.2751 1.32499C8.2501 1.09999 8.1501 0.999988 7.9751 0.924988L8.0751 7.87499L8.1251 7.82499Z" fill="url(#paint8_linear_9_3)"/>
<path d="M8.1251 7.82499C8.1001 7.84999 8.1001 7.84999 8.1001 7.84999C8.1001 7.84999 8.1001 7.89999 8.1501 7.87499C8.1751 7.84999 8.9001 7.47499 9.1501 7.32499L8.2751 1.32499C8.2501 1.09999 8.1501 0.999988 7.9751 0.924988L8.0751 7.87499L8.1251 7.82499Z" fill="url(#paint9_linear_9_3)"/>
<path d="M1.27505 11.1C1.10005 10.7 0.100049 8.75 1.20005 5H0.775049C0.550049 5.75 0.375049 6.2 0.275049 6.875C0.275049 6.875 0.225049 7.125 0.200049 7.4C0.175049 7.675 0.175049 7.825 0.175049 8C0.175049 9.5 0.550049 10.375 0.550049 10.375C0.950049 11.625 1.65005 12.75 2.60005 13.6C3.42505 14.325 4.70005 14.875 5.75005 15.075C5.57505 15.05 2.57505 13.775 1.27505 11.1Z" fill="url(#paint10_linear_9_3)"/>
<path d="M8.1 8.15H7.875C7.9 8.15 7.925 8.15 7.925 8.175L7.975 9.325H8L8.05 8.175C8.05 8.15 8.075 8.125 8.1 8.15V8.15Z" fill="url(#paint11_linear_9_3)"/>
<path d="M10.5 0.575012C13.125 1.57501 15.6 4.32501 15.6 7.80001C15.6 12 12.25 15.425 8 15.425V15.825C12.25 15.825 15.825 12.325 15.825 8.00001C15.825 4.55001 13.625 1.65001 10.5 0.575012Z" fill="url(#paint12_linear_9_3)"/>
<path d="M14.7 5.05002C12.95 1.02502 9 0.800024 8.775 0.775024C8.775 0.775024 8.775 0.775024 8.75 0.775024C11.775 1.32502 13.7 3.30002 14.375 5.37502V5.40002C14.675 6.20002 14.825 7.05002 14.85 7.97502C14.875 8.85002 14.675 9.82503 14.3 10.725C14.275 10.85 14.25 11 14.225 11H14.625C15.825 8.75002 15.3 6.47502 14.7 5.05002Z" fill="url(#paint13_linear_9_3)"/>
<path d="M0.550049 8.02499C0.550049 3.92499 3.87505 0.549988 8.00005 0.549988C12.1251 0.549988 15.4501 3.89999 15.4501 8.02499C15.4501 12.125 12.1251 15.45 8.00005 15.45C3.87505 15.45 0.550049 12.125 0.550049 8.02499ZM2.87505 2.87499C1.55005 4.19999 0.725049 6.02499 0.725049 8.02499C0.725049 10.025 1.55005 11.85 2.85005 13.15C4.17505 14.45 6.00005 15.275 8.00005 15.275C10 15.275 11.8251 14.475 13.1251 13.15C14.4501 11.85 15.2501 10.025 15.2501 8.02499C15.2501 6.02499 14.4251 4.19999 13.1251 2.87499C11.8251 1.54999 10 0.724988 8.00005 0.724988C6.00005 0.724988 4.17505 1.54999 2.87505 2.87499Z" fill="#FBFBFB"/>
<path d="M1.9751 11.2L7.0751 7.52498C7.3501 7.67498 7.8001 7.87498 7.8501 7.87498C7.9001 7.89998 7.9001 7.84998 7.9001 7.84998L7.2751 7.32498C7.2001 7.27498 7.1751 7.19998 7.1751 7.12498L7.7751 1.09998C7.7501 1.12498 7.7501 1.17498 7.7251 1.19998C7.7001 1.24998 7.7001 1.27498 7.7001 1.32498L6.8251 7.34998L2.0251 11.125C2.0001 11.15 1.9751 11.175 1.9751 11.2Z" fill="#333F47"/>
<defs>
<linearGradient id="paint0_linear_9_3" x1="2.00005" y1="2.97499" x2="14.0001" y2="13.025" gradientUnits="userSpaceOnUse">
<stop stop-color="white"/>
<stop offset="0.1" stop-color="#CDD0D0"/>
<stop offset="0.2" stop-color="#A5ACAF"/>
<stop offset="0.3" stop-color="#98A0A4"/>
<stop offset="0.4" stop-color="#828A8F"/>
<stop offset="0.5" stop-color="#667075"/>
<stop offset="0.6" stop-color="#535C63"/>
<stop offset="0.7" stop-color="#475158"/>
<stop offset="0.8" stop-color="#434D54"/>
<stop offset="1" stop-color="#475157"/>
</linearGradient>
<linearGradient id="paint1_linear_9_3" x1="2.3749" y1="3.27502" x2="13.6249" y2="12.725" gradientUnits="userSpaceOnUse">
<stop stop-color="#0B1F2A"/>
<stop offset="0.2" stop-color="#333F47"/>
<stop offset="0.5" stop-color="#81898D"/>
<stop offset="0.7" stop-color="#B3B8B8"/>
<stop offset="0.8" stop-color="#DEE0DD"/>
<stop offset="1" stop-color="#FBFBFB"/>
</linearGradient>
<linearGradient id="paint2_linear_9_3" x1="10.7432" y1="15.5268" x2="5.26815" y2="0.476775" gradientUnits="userSpaceOnUse">
<stop stop-color="#E1E3E1"/>
<stop offset="0.1" stop-color="#C1C5C4"/>
<stop offset="0.3" stop-color="#9BA1A2"/>
<stop offset="0.5" stop-color="#7D8487"/>
<stop offset="0.7" stop-color="#687074" stop-opacity="0"/>
<stop offset="0.8" stop-color="#5B6469" stop-opacity="0"/>
<stop offset="1" stop-color="#576065" stop-opacity="0"/>
</linearGradient>
<linearGradient id="paint3_linear_9_3" x1="4.5501" y1="2.02498" x2="11.4501" y2="13.975" gradientUnits="userSpaceOnUse">
<stop stop-color="#E1E3E1"/>
<stop offset="0.1" stop-color="#C1C5C4"/>
<stop offset="0.3" stop-color="#9BA1A2"/>
<stop offset="0.5" stop-color="#7D8487"/>
<stop offset="0.7" stop-color="#687074" stop-opacity="0"/>
<stop offset="0.8" stop-color="#5B6469" stop-opacity="0"/>
<stop offset="1" stop-color="#576065" stop-opacity="0"/>
</linearGradient>
<linearGradient id="paint4_linear_9_3" x1="11.125" y1="9.85003" x2="10.7" y2="10.55" gradientUnits="userSpaceOnUse">
<stop stop-color="#27343C"/>
<stop offset="1" stop-color="#00111E" stop-opacity="0"/>
</linearGradient>
<linearGradient id="paint5_linear_9_3" x1="9.9001" y1="7.27498" x2="9.2001" y2="6.14998" gradientUnits="userSpaceOnUse">
<stop offset="0.1" stop-color="#02131F"/>
<stop offset="0.9" stop-color="#02131F" stop-opacity="0"/>
</linearGradient>
<linearGradient id="paint6_linear_9_3" x1="7.99995" y1="9.10003" x2="6.94995" y2="9.40003" gradientUnits="userSpaceOnUse">
<stop offset="0.2" stop-color="#02131F"/>
<stop offset="0.9" stop-color="#02131F" stop-opacity="0"/>
</linearGradient>
<linearGradient id="paint7_linear_9_3" x1="5.20005" y1="10.475" x2="5.05005" y2="10.1" gradientUnits="userSpaceOnUse">
<stop stop-color="#02131F"/>
<stop offset="0.1" stop-color="#02131F"/>
<stop offset="1" stop-color="#02131F" stop-opacity="0"/>
</linearGradient>
<linearGradient id="paint8_linear_9_3" x1="8.9001" y1="4.29999" x2="8.0501" y2="4.39999" gradientUnits="userSpaceOnUse">
<stop offset="0.3" stop-color="#02131F"/>
<stop offset="0.8" stop-color="#02131F" stop-opacity="0"/>
</linearGradient>
<linearGradient id="paint9_linear_9_3" x1="8.9251" y1="4.27499" x2="8.3501" y2="4.34999" gradientUnits="userSpaceOnUse">
<stop offset="0.4" stop-color="#27343C"/>
<stop offset="1" stop-color="#3B474E" stop-opacity="0"/>
</linearGradient>
<linearGradient id="paint10_linear_9_3" x1="-0.0999512" y1="8.225" x2="6.87505" y2="12.25" gradientUnits="userSpaceOnUse">
<stop stop-color="#25323B" stop-opacity="0"/>
<stop offset="0.1" stop-color="#27343C"/>
</linearGradient>
<linearGradient id="paint11_linear_9_3" x1="8" y1="9.35" x2="8" y2="8.15" gradientUnits="userSpaceOnUse">
<stop offset="0.3" stop-color="#A5ABAF"/>
<stop offset="1" stop-color="#A5ABAF" stop-opacity="0"/>
</linearGradient>
<linearGradient id="paint12_linear_9_3" x1="11.925" y1="0.575012" x2="11.925" y2="15.825" gradientUnits="userSpaceOnUse">
<stop stop-color="#6B7378"/>
<stop offset="0.2" stop-color="#333F47"/>
<stop offset="0.5" stop-color="#27343C"/>
<stop offset="0.8" stop-color="#333F47"/>
<stop offset="1" stop-color="#434D54"/>
</linearGradient>
<linearGradient id="paint13_linear_9_3" x1="14.325" y1="2.02502" x2="10.95" y2="6.97502" gradientUnits="userSpaceOnUse">
<stop offset="0.7" stop-color="#49545B"/>
<stop offset="0.8" stop-color="white" stop-opacity="0"/>
</linearGradient>
</defs>
</svg>
